<mxfile host="app.diagrams.net" modified="2023-04-06T17:52:53.393Z" agent="Mozilla/5.0 (Macintosh; Intel Mac OS X 10_15_7) AppleWebKit/605.1.15 (KHTML, like Gecko) Version/15.5 Safari/605.1.15" version="21.1.4" etag="fgkJnPX52WXen13kxo6f" type="github">
  <diagram name="Page-1" id="PMnfcx-tlYBAUca5uvMp">
    <mxGraphModel>
      <root>
        <mxCell id="0" />
        <mxCell id="1" parent="0" />
      </root>
    </mxGraphModel>
  </diagram>
</mxfile>
